<svg width="108" height="108" xmlns="http://www.w3.org/2000/svg">

 <g>
  <title>Layer 1</title>
  <circle id="svg_1" fill="#1896a4" r="54" cy="54" cx="54"/>
  <path id="svg_2" fill="#fff" d="m61.75,70.88c-2.06,0.82 -4.29,1.29 -6.64,1.29c-9.88,0 -17.89,-8.01 -17.89,-17.89c0,-0.73 0.06,-1.45 0.14,-2.16l-18.02,-2.93a36.31,36.31 0 0 0 -0.33,4.81c0,19.88 16.12,36 36,36c6.97,0 13.47,-1.99 18.98,-5.42l-12.24,-13.7zm10.19,-22.7l-23.94,5.28l42.05,8.74c0.61,-2.63 0.95,-5.38 0.95,-8.2c0,-19.88 -16.12,-36 -36,-36c-7.98,0 -15.34,2.6 -21.31,6.99l12.44,13.82a17.75,17.75 0 0 1 8.98,-2.43c7.74,0 14.34,4.92 16.83,11.8"/>
 </g>
</svg>