<?xml version="1.0" standalone="no"?>
<!DOCTYPE svg PUBLIC "-//W3C//DTD SVG 20010904//EN"
 "http://www.w3.org/TR/2001/REC-SVG-20010904/DTD/svg10.dtd">
<svg version="1.0" xmlns="http://www.w3.org/2000/svg"
 width="325.000000pt" height="325.000000pt" viewBox="0 0 325.000000 325.000000"
 preserveAspectRatio="xMidYMid meet">
<metadata>
Created by potrace 1.14, written by Peter Selinger 2001-2017
</metadata>
<g transform="translate(0.000000,325.000000) scale(0.100000,-0.100000)"
fill="#000000" stroke="none">
<path d="M1608 2785 c-2 -1 -37 -5 -79 -9 -133 -11 -298 -66 -422 -140 -88
-53 -202 -139 -202 -154 0 -6 211 -169 469 -361 257 -193 474 -358 482 -368
60 -80 -13 -235 -117 -247 -50 -5 -85 11 -173 78 -43 34 -95 73 -115 87 -20
14 -198 148 -396 296 l-360 270 -18 -26 c-35 -52 -107 -220 -107 -250 0 -8 40
-39 310 -245 80 -60 147 -113 150 -116 3 -3 39 -30 80 -60 41 -30 77 -57 80
-60 13 -15 240 -180 280 -203 25 -14 66 -34 90 -42 54 -20 172 -27 232 -14 77
17 180 74 241 135 183 182 204 429 49 604 -22 25 -171 144 -331 265 -160 120
-287 223 -282 228 18 18 198 47 281 46 110 -2 186 -21 286 -69 129 -62 248
-161 369 -305 88 -106 129 -146 170 -171 45 -26 109 -50 152 -57 15 -3 41 -8
56 -12 28 -7 28 -7 21 31 -10 58 -69 201 -119 289 -161 282 -439 487 -753 555
-80 18 -312 36 -324 25z"/>
<path d="M2515 1564 c-9 -75 -38 -156 -81 -228 -19 -33 -36 -63 -37 -68 -3
-11 286 -217 296 -211 11 6 64 123 89 193 28 79 60 242 50 252 -9 9 -290 118
-303 118 -4 0 -10 -25 -14 -56z"/>
<path d="M520 1542 c0 -101 54 -299 116 -429 142 -296 431 -530 759 -614 109
-28 125 -30 245 -35 201 -7 398 38 578 131 85 44 238 150 245 170 2 6 -62 61
-144 123 l-148 112 -50 -30 c-231 -136 -511 -168 -715 -83 -175 73 -583 389
-853 661 l-33 34 0 -40z"/>
</g>
</svg>
